<svg width="85" height="80" viewBox="0 0 85 80" fill="none" xmlns="http://www.w3.org/2000/svg">
<path d="M4.17697 48.9416C1.50249 46.4522 0 43.076 0 39.5556C0 36.0352 1.50249 32.6589 4.17697 30.1696L32.415 3.88762C35.0897 1.39841 38.7172 0 42.4996 0C46.282 0 49.9096 1.39841 52.5842 3.88762L80.823 30.1696C83.4975 32.6589 85 36.0352 85 39.5556C85 43.076 83.4975 46.4522 80.823 48.9416" fill="#29C17E"/>
<path d="M4.17672 30.5142C1.50225 33.0035 -0.000244141 36.3798 -0.000244141 39.9002C-0.000244141 43.4206 1.50225 46.7968 4.17672 49.2862L32.4148 75.5681C35.0895 78.0573 38.717 79.4557 42.4994 79.4557C46.2818 79.4557 49.9093 78.0573 52.584 75.5681L80.8228 49.2862C83.4973 46.7968 84.9998 43.4206 84.9998 39.9002C84.9998 36.3798 83.4973 33.0035 80.8228 30.5142" fill="#29C17E"/>
<path d="M43.8885 52.8127C43.8885 52.984 44.1007 52.9854 44.1393 52.8127C44.4197 51.5424 44.848 50.6938 45.5166 49.8716L44.0126 49.8728C43.9963 49.8728 43.9801 49.8757 43.965 49.8815C43.9499 49.8873 43.9362 49.8958 43.9247 49.9065C43.9131 49.9173 43.904 49.93 43.8977 49.9441C43.8915 49.9581 43.8883 49.9731 43.8883 49.9883L43.8885 52.8127ZM54.9295 35.1716C54.8679 34.9852 54.6946 34.9728 54.6959 35.1678C54.7131 37.0047 54.146 38.5832 50.5435 41.9377L47.6919 44.5882C46.3948 45.7954 45.2285 46.8989 44.5399 47.9998H47.3544L47.6883 47.689L51.777 43.88C55.1825 40.7104 55.6574 37.3569 54.9303 35.171M51.1076 46.3792L47.6915 49.5601C45.6246 51.4852 43.8876 53.1433 43.8876 54.9566L43.8902 55.4609C43.8902 55.5988 44.0731 55.62 44.1292 55.4771C44.768 53.8526 46.9009 52.1199 50.8131 52.7348C50.8131 52.7348 67.8567 55.4759 67.9993 55.487C68.0335 55.4928 68.0688 55.4881 68.0999 55.4738C68.1311 55.4595 68.1565 55.4362 68.1723 55.4075C68.1882 55.3787 68.1937 55.3459 68.188 55.314C68.1824 55.2821 68.1658 55.2528 68.1409 55.2303C68.0755 55.1582 60.209 47.8367 60.209 47.8367L51.1076 46.3792ZM38.7773 49.8709C38.7444 49.8708 38.713 49.8585 38.6897 49.8369C38.6665 49.8153 38.6534 49.786 38.6533 49.7554V48.1142C38.6534 48.0836 38.6665 48.0543 38.6897 48.0327C38.713 48.0111 38.7444 47.9988 38.7773 47.9987L41.7612 47.9999C41.7943 47.9997 41.8259 47.9872 41.8491 47.9654C41.8724 47.9435 41.8854 47.9139 41.8853 47.8832C41.8773 46.4089 40.683 45.4079 35.8991 46.1828L25.5695 47.8359C25.5695 47.8359 17.7004 55.1573 17.6362 55.2294C17.6113 55.2519 17.5947 55.2813 17.5891 55.3132C17.5834 55.3451 17.5889 55.3779 17.6048 55.4067C17.6206 55.4354 17.646 55.4587 17.6772 55.473C17.7083 55.4873 17.7436 55.492 17.7778 55.4862C17.922 55.475 34.964 52.734 34.964 52.734C38.8765 52.1193 41.0103 53.8518 41.6479 55.4763C41.704 55.6192 41.8869 55.5979 41.8869 55.4601C41.8869 55.362 41.8882 49.9866 41.8882 49.9866C41.8881 49.956 41.875 49.9267 41.8518 49.9051C41.8285 49.8834 41.7971 49.8712 41.7642 49.871L38.7773 49.8709ZM34.0159 26.9308C30.6104 30.1004 30.1355 33.4539 30.8626 35.6398C30.9239 35.8261 31.0974 35.8386 31.0949 35.6436C31.0788 33.8066 31.6466 32.2282 35.2501 28.8736L43.0176 21.6454C45.0848 19.7216 46.8215 18.0634 46.8215 16.2501V13.4208C46.8215 13.2494 46.6107 13.2481 46.5719 13.4208C46.0607 15.7296 45.0693 16.6399 43.0237 18.5439L34.0159 26.9308ZM46.8291 21.2164V18.3685C46.8291 18.1972 46.617 18.1958 46.5795 18.3685C46.0684 20.6773 45.0783 21.6027 43.0326 23.5053L34.8738 31.0925C30.9139 34.777 30.23 38.3444 32.2439 40.636C32.3772 40.7901 32.5228 40.6982 32.4345 40.5131C31.1029 37.71 34.2961 34.7366 35.8159 33.322L43.0258 26.6127C45.0928 24.6877 46.8296 23.0294 46.8296 21.2162M35.0986 35.8568C31.1392 39.5418 32.9595 43.0997 35.2695 44.0799C35.4727 44.1668 35.5524 44.0124 35.3974 43.8887C33.5452 42.3946 34.1085 39.8832 36.4372 37.716L43.0186 31.5905C45.0857 29.6667 46.8218 28.0085 46.8218 26.1952V23.3671C46.8218 23.1945 46.6097 23.1945 46.5722 23.3671C46.0613 25.6747 45.071 26.5813 43.0253 28.4854L35.0986 35.8568ZM43.8824 45.0165V47.8644C43.8824 48.0357 44.0933 48.0371 44.1319 47.8644C44.6431 45.5568 45.6332 44.6314 47.6775 42.7276L50.919 39.717C54.8771 36.0337 55.5615 32.4663 53.5485 30.1747C53.4139 30.0207 53.2695 30.1126 53.3577 30.2977C54.6895 33.1008 51.4961 36.073 49.9763 37.4887L47.6844 39.6212C45.616 41.5451 43.8805 43.2032 43.8805 45.0165M47.6844 37.7473C45.6387 39.6512 44.6487 40.5592 44.1373 42.8669C44.1 43.0396 43.8877 43.0396 43.8877 42.8669V40.0389C43.8877 38.2256 45.6237 36.5676 47.6916 34.6424L49.3543 33.0949C51.6843 30.9276 52.2461 28.4163 50.3938 26.9222C50.2391 26.798 50.3191 26.644 50.5219 26.731C52.8318 27.7097 54.6522 31.269 50.6928 34.9553L47.6844 37.7473Z" fill="white"/>
</svg>
