<svg width="46" height="43" viewBox="0 0 46 43" fill="none" xmlns="http://www.w3.org/2000/svg">
<path d="M2.26049 26.4862C0.813119 25.139 0 23.3119 0 21.4067C0 19.5015 0.813119 17.6744 2.26049 16.3272L17.5424 2.1039C18.9899 0.756792 20.953 0 23 0C25.0469 0 27.0101 0.756792 28.4576 2.1039L43.7398 16.3272C45.1872 17.6744 46.0003 19.5015 46.0003 21.4067C46.0003 23.3119 45.1872 25.139 43.7398 26.4862" fill="#29C17E"/>
<path d="M2.26037 16.5137C0.812996 17.8609 -0.00012207 19.688 -0.00012207 21.5932C-0.00012207 23.4984 0.812996 25.3255 2.26037 26.6727L17.5423 40.896C18.9897 42.2431 20.9529 42.9999 22.9998 42.9999C25.0468 42.9999 27.01 42.2431 28.4574 40.896L43.7397 26.6727C45.1871 25.3255 46.0002 23.4984 46.0002 21.5932C46.0002 19.688 45.1871 17.8609 43.7397 16.5137" fill="#29C17E"/>
<path d="M23.7516 28.5812C23.7516 28.6739 23.8665 28.6746 23.8874 28.5812C24.0391 27.8938 24.2709 27.4345 24.6327 26.9895L23.8188 26.9902C23.8099 26.9902 23.8012 26.9918 23.793 26.9949C23.7849 26.998 23.7774 27.0026 23.7712 27.0084C23.7649 27.0143 23.76 27.0212 23.7566 27.0288C23.7532 27.0364 23.7515 27.0445 23.7515 27.0527L23.7516 28.5812ZM29.7268 19.0342C29.6934 18.9333 29.5996 18.9266 29.6003 19.0321C29.6097 20.0262 29.3028 20.8805 27.3532 22.6959L25.8099 24.1302C25.108 24.7836 24.4768 25.3808 24.1041 25.9765H25.6273L25.808 25.8083L28.0207 23.747C29.8637 22.0317 30.1207 20.2168 29.7272 19.0339M27.6584 25.0995L25.8097 26.821C24.6912 27.8628 23.7511 28.7601 23.7511 29.7415L23.7525 30.0144C23.7525 30.089 23.8515 30.1004 23.8819 30.0231C24.2276 29.144 25.3819 28.2063 27.4991 28.5391C27.4991 28.5391 36.7227 30.0225 36.7999 30.0285C36.8184 30.0316 36.8375 30.0291 36.8544 30.0214C36.8712 30.0136 36.885 30.001 36.8935 29.9854C36.9021 29.9699 36.9051 29.9521 36.902 29.9349C36.899 29.9176 36.89 29.9017 36.8765 29.8895C36.8412 29.8506 32.584 25.8883 32.584 25.8883L27.6584 25.0995ZM20.9855 26.9892C20.9677 26.9891 20.9507 26.9825 20.9381 26.9708C20.9256 26.959 20.9185 26.9432 20.9184 26.9266V26.0385C20.9185 26.0219 20.9256 26.0061 20.9381 25.9944C20.9507 25.9826 20.9677 25.976 20.9855 25.976L22.6003 25.9766C22.6182 25.9765 22.6354 25.9698 22.6479 25.9579C22.6605 25.9461 22.6676 25.9301 22.6675 25.9134C22.6632 25.1156 22.0169 24.5738 19.4279 24.9932L13.8377 25.8878C13.8377 25.8878 9.57913 29.85 9.5444 29.8891C9.53089 29.9013 9.52194 29.9172 9.51887 29.9344C9.51581 29.9517 9.51879 29.9694 9.52737 29.985C9.53596 30.0006 9.54969 30.0132 9.56655 30.0209C9.58341 30.0287 9.6025 30.0312 9.62101 30.028C9.69903 30.022 18.9218 28.5386 18.9218 28.5386C21.0392 28.206 22.194 29.1435 22.5391 30.0227C22.5694 30.1 22.6684 30.0885 22.6684 30.0139C22.6684 29.9608 22.6691 27.0518 22.6691 27.0518C22.669 27.0352 22.6619 27.0194 22.6494 27.0077C22.6368 26.996 22.6198 26.9893 22.602 26.9892L20.9855 26.9892ZM18.4088 14.5744C16.5658 16.2898 16.3088 18.1046 16.7022 19.2876C16.7354 19.3884 16.8293 19.3951 16.828 19.2896C16.8192 18.2955 17.1265 17.4413 19.0767 15.6258L23.2803 11.7141C24.399 10.6729 25.3389 9.77556 25.3389 8.79424V7.26306C25.3389 7.17033 25.2248 7.1696 25.2038 7.26306C24.9272 8.51254 24.3906 9.00522 23.2836 10.0356L18.4088 14.5744ZM25.343 11.4819V9.94069C25.343 9.84796 25.2282 9.84723 25.2079 9.94069C24.9313 11.1902 24.3955 11.691 23.2884 12.7206L18.873 16.8267C16.73 18.8206 16.3599 20.7512 17.4498 21.9914C17.5219 22.0748 17.6007 22.0251 17.5529 21.9249C16.8323 20.4079 18.5604 18.7988 19.3829 18.0332L23.2847 14.4023C24.4033 13.3605 25.3433 12.4631 25.3433 11.4818M18.9947 19.405C16.8519 21.3992 17.8371 23.3247 19.0871 23.8552C19.1971 23.9022 19.2403 23.8186 19.1564 23.7517C18.154 22.9431 18.4589 21.584 19.7191 20.4112L23.2809 17.0962C24.3995 16.055 25.3391 15.1577 25.3391 14.1763V12.6458C25.3391 12.5524 25.2243 12.5524 25.204 12.6458C24.9275 13.8946 24.3916 14.3853 23.2845 15.4157L18.9947 19.405ZM23.7483 24.3621V25.9033C23.7483 25.996 23.8624 25.9967 23.8833 25.9033C24.16 24.6544 24.6958 24.1536 25.8022 23.1233L27.5564 21.4941C29.6984 19.5007 30.0688 17.5701 28.9794 16.33C28.9065 16.2466 28.8284 16.2963 28.8761 16.3965C29.5969 17.9135 27.8687 19.522 27.0462 20.2882L25.8059 21.4422C24.6865 22.4834 23.7473 23.3807 23.7473 24.3621M25.8059 20.4281C24.6988 21.4585 24.163 21.9498 23.8863 23.1987C23.8661 23.2922 23.7512 23.2922 23.7512 23.1987V21.6683C23.7512 20.687 24.6907 19.7897 25.8098 18.7478L26.7096 17.9103C27.9705 16.7374 28.2746 15.3784 27.2722 14.5698C27.1884 14.5026 27.2317 14.4192 27.3415 14.4663C28.5916 14.996 29.5767 16.9222 27.4339 18.9172L25.8059 20.4281Z" fill="white"/>
<path d="M23.7517 28.5812C23.7517 28.6739 23.8666 28.6746 23.8875 28.5812C24.0392 27.8938 24.271 27.4345 24.6328 26.9895L23.8189 26.9902C23.8101 26.9902 23.8013 26.9918 23.7931 26.9949C23.785 26.998 23.7776 27.0026 23.7713 27.0084C23.7651 27.0143 23.7601 27.0212 23.7567 27.0288C23.7533 27.0364 23.7516 27.0445 23.7516 27.0527L23.7517 28.5812ZM29.7269 19.0342C29.6936 18.9333 29.5998 18.9266 29.6005 19.0321C29.6098 20.0262 29.3029 20.8805 27.3533 22.6959L25.8101 24.1302C25.1081 24.7836 24.4769 25.3808 24.1043 25.9765H25.6274L25.8081 25.8083L28.0208 23.747C29.8638 22.0317 30.1208 20.2168 29.7274 19.0339M27.6586 25.0995L25.8098 26.821C24.6913 27.8628 23.7512 28.7601 23.7512 29.7415L23.7527 30.0144C23.7527 30.089 23.8517 30.1004 23.882 30.0231C24.2277 29.144 25.382 28.2063 27.4992 28.5391C27.4992 28.5391 36.7229 30.0225 36.8 30.0285C36.8185 30.0316 36.8376 30.0291 36.8545 30.0214C36.8713 30.0136 36.8851 30.001 36.8937 29.9854C36.9022 29.9699 36.9052 29.9521 36.9022 29.9349C36.8991 29.9176 36.8902 29.9017 36.8766 29.8895C36.8413 29.8506 32.5841 25.8883 32.5841 25.8883L27.6586 25.0995ZM20.9857 26.9892C20.9679 26.9891 20.9508 26.9825 20.9383 26.9708C20.9257 26.959 20.9186 26.9432 20.9186 26.9266V26.0385C20.9186 26.0219 20.9257 26.0061 20.9383 25.9944C20.9508 25.9826 20.9679 25.976 20.9857 25.976L22.6005 25.9766C22.6184 25.9765 22.6355 25.9698 22.6481 25.9579C22.6606 25.9461 22.6677 25.9301 22.6676 25.9134C22.6633 25.1156 22.017 24.5738 19.428 24.9932L13.8379 25.8878C13.8379 25.8878 9.57925 29.85 9.54452 29.8891C9.53101 29.9013 9.52206 29.9172 9.519 29.9344C9.51593 29.9517 9.51891 29.9694 9.52749 29.985C9.53608 30.0006 9.54981 30.0132 9.56667 30.0209C9.58353 30.0287 9.60263 30.0312 9.62113 30.028C9.69915 30.022 18.922 28.5386 18.922 28.5386C21.0393 28.206 22.1941 29.1435 22.5392 30.0227C22.5695 30.1 22.6685 30.0885 22.6685 30.0139C22.6685 29.9608 22.6692 27.0518 22.6692 27.0518C22.6691 27.0352 22.662 27.0194 22.6495 27.0077C22.6369 26.996 22.6199 26.9893 22.6021 26.9892L20.9857 26.9892ZM18.4089 14.5744C16.5659 16.2898 16.3089 18.1046 16.7024 19.2876C16.7355 19.3884 16.8294 19.3951 16.8281 19.2896C16.8194 18.2955 17.1267 17.4413 19.0768 15.6258L23.2804 11.7141C24.3991 10.6729 25.339 9.77556 25.339 8.79424V7.26306C25.339 7.17033 25.2249 7.1696 25.204 7.26306C24.9273 8.51254 24.3907 9.00522 23.2837 10.0356L18.4089 14.5744ZM25.3431 11.4819V9.94069C25.3431 9.84796 25.2283 9.84723 25.208 9.94069C24.9315 11.1902 24.3956 11.691 23.2885 12.7206L18.8732 16.8267C16.7301 18.8206 16.36 20.7512 17.4499 21.9914C17.522 22.0748 17.6008 22.0251 17.5531 21.9249C16.8324 20.4079 18.5605 18.7988 19.383 18.0332L23.2848 14.4023C24.4035 13.3605 25.3434 12.4631 25.3434 11.4818M18.9948 19.405C16.852 21.3992 17.8372 23.3247 19.0873 23.8552C19.1973 23.9022 19.2404 23.8186 19.1565 23.7517C18.1541 22.9431 18.459 21.584 19.7192 20.4112L23.281 17.0962C24.3996 16.055 25.3392 15.1577 25.3392 14.1763V12.6458C25.3392 12.5524 25.2244 12.5524 25.2041 12.6458C24.9276 13.8946 24.3917 14.3853 23.2846 15.4157L18.9948 19.405ZM23.7484 24.3621V25.9033C23.7484 25.996 23.8626 25.9967 23.8835 25.9033C24.1601 24.6544 24.6959 24.1536 25.8023 23.1233L27.5565 21.4941C29.6985 19.5007 30.0689 17.5701 28.9795 16.33C28.9067 16.2466 28.8286 16.2963 28.8763 16.3965C29.597 17.9135 27.8688 19.522 27.0463 20.2882L25.806 21.4422C24.6866 22.4834 23.7474 23.3807 23.7474 24.3621M25.806 20.4281C24.6989 21.4585 24.1631 21.9498 23.8864 23.1987C23.8662 23.2922 23.7513 23.2922 23.7513 23.1987V21.6683C23.7513 20.687 24.6908 19.7897 25.8099 18.7478L26.7097 17.9103C27.9706 16.7374 28.2747 15.3784 27.2723 14.5698C27.1885 14.5026 27.2318 14.4192 27.3416 14.4663C28.5917 14.996 29.5768 16.9222 27.4341 18.9172L25.806 20.4281Z" fill="white"/>
</svg>
