<svg width="22" height="22" viewBox="0 0 22 22" fill="none" xmlns="http://www.w3.org/2000/svg">
<path d="M11 21C16.5228 21 21 16.5228 21 11C21 5.47715 16.5228 1 11 1C5.47715 1 1 5.47715 1 11C1 16.5228 5.47715 21 11 21ZM13.5639 11.092L9.32744 13.5932C9.32328 13.5891 9.31874 13.5835 9.31462 13.5762C9.30851 13.5653 9.3 13.5447 9.3 13.5082V8.49184C9.3 8.45534 9.30851 8.43473 9.31462 8.42381C9.31874 8.41646 9.32328 8.41087 9.32744 8.4068L13.5639 10.908C13.5731 10.9135 13.5788 10.9191 13.5848 10.9304C13.5924 10.9447 13.6 10.969 13.6 11C13.6 11.031 13.5924 11.0553 13.5848 11.0696C13.5788 11.0809 13.5731 11.0865 13.5639 11.092Z" fill="#1C274C" stroke="white" stroke-width="2"/>
</svg>
